<?xml version="1.0" standalone="no"?>
<!DOCTYPE svg PUBLIC "-//W3C//DTD SVG 20010904//EN"
 "http://www.w3.org/TR/2001/REC-SVG-20010904/DTD/svg10.dtd">
<svg version="1.0" xmlns="http://www.w3.org/2000/svg"
 width="1200.000000pt" height="1200.000000pt" viewBox="0 0 1200.000000 1200.000000"
 preserveAspectRatio="xMidYMid meet">
<metadata>
Created by potrace 1.11, written by Peter Selinger 2001-2013
</metadata>
<g transform="translate(0.000000,1200.000000) scale(0.100000,-0.100000)"
fill="#000000" stroke="none">
<path d="M5365 10140 c-4 -6 -10 -8 -15 -5 -5 3 -16 -2 -24 -11 -10 -10 -16
-11 -16 -4 0 18 -61 -45 -65 -66 -2 -11 -4 -19 -6 -19 -2 0 -4 -16 -12 -65 -2
-14 -7 -32 -11 -39 -5 -8 -3 -17 5 -22 12 -8 12 -11 -1 -20 -11 -8 -12 -12 -3
-16 9 -3 10 -10 3 -24 -8 -14 -7 -19 2 -19 9 0 9 -3 -2 -10 -13 -8 -13 -10 0
-10 10 0 11 -3 3 -11 -8 -8 -8 -20 -2 -36 5 -15 5 -22 0 -18 -6 3 -9 -4 -8
-15 1 -11 5 -20 10 -20 5 0 5 -6 -2 -13 -8 -10 -7 -17 2 -27 9 -9 9 -11 0 -6
-8 4 -11 -1 -10 -14 1 -11 5 -20 10 -20 4 0 5 -5 1 -12 -4 -6 -8 -64 -9 -129
-1 -85 -5 -123 -16 -135 -11 -14 -11 -16 0 -10 9 6 8 1 -3 -16 -9 -14 -14 -27
-10 -30 3 -3 -8 -12 -25 -19 -16 -7 -28 -16 -25 -20 6 -10 -26 -20 -38 -12 -6
3 -8 2 -5 -4 4 -5 -11 -16 -33 -23 -22 -7 -37 -16 -35 -21 3 -4 -4 -5 -15 -2
-12 3 -20 0 -20 -6 0 -7 -5 -9 -10 -6 -6 4 -17 1 -25 -5 -8 -6 -19 -9 -25 -5
-5 3 -10 1 -10 -5 0 -6 -4 -8 -10 -5 -5 3 -10 1 -10 -5 0 -6 -4 -8 -10 -5 -5
3 -10 1 -10 -4 0 -6 -3 -10 -7 -9 -6 2 -56 -15 -83 -27 -3 -2 -15 -6 -27 -10
-13 -4 -23 -11 -23 -16 0 -5 -7 -6 -15 -3 -8 4 -15 1 -15 -5 0 -6 -9 -11 -20
-11 -11 0 -20 -5 -20 -11 0 -5 -4 -7 -10 -4 -5 3 -10 3 -10 -2 0 -4 -20 -17
-44 -27 -25 -11 -42 -24 -39 -30 4 -5 -1 -7 -10 -3 -9 3 -17 2 -19 -3 -2 -5
-10 -10 -18 -12 -16 -3 -31 -14 -61 -40 -10 -10 -19 -15 -19 -12 0 3 -7 -1
-15 -8 -34 -30 -50 -43 -55 -43 -4 0 -14 -7 -22 -15 -9 -8 -30 -26 -46 -39
-17 -14 -28 -29 -25 -34 3 -6 1 -7 -5 -3 -7 4 -33 -14 -63 -43 -29 -28 -49
-51 -45 -51 3 0 -2 -8 -11 -19 -10 -10 -20 -18 -23 -17 -3 1 -7 -3 -10 -8 -7
-13 -40 -53 -71 -87 -15 -15 -24 -31 -20 -34 3 -4 -2 -11 -12 -16 -9 -6 -15
-14 -12 -20 4 -5 -1 -12 -9 -15 -9 -3 -14 -10 -11 -14 3 -4 -2 -11 -11 -14 -8
-3 -13 -10 -9 -15 3 -6 -2 -14 -11 -19 -9 -5 -15 -11 -14 -13 1 -2 -4 -17 -11
-34 -7 -16 -13 -34 -13 -38 -1 -4 -7 -11 -14 -16 -8 -5 -14 -12 -13 -17 1 -21
-12 -54 -21 -54 -5 0 -7 -4 -3 -10 3 -5 0 -19 -6 -32 -23 -43 -26 -53 -24 -75
1 -12 -3 -21 -9 -20 -6 1 -10 -8 -8 -20 2 -13 -2 -23 -9 -23 -6 0 -9 -8 -6
-20 3 -11 1 -22 -3 -25 -5 -3 -7 -14 -5 -25 2 -11 -1 -20 -7 -20 -6 0 -8 -11
-6 -25 3 -14 2 -28 -3 -31 -4 -2 -6 -11 -2 -19 3 -8 1 -15 -4 -15 -5 0 -7 -14
-5 -31 4 -25 2 -30 -9 -24 -11 7 -12 6 -2 -6 10 -12 10 -18 1 -27 -9 -9 -9
-12 0 -12 9 0 10 -5 4 -17 -5 -10 -9 -46 -8 -80 1 -35 -3 -65 -9 -67 -5 -3 -4
-5 4 -5 11 -1 10 -5 -5 -16 -19 -15 -19 -15 1 -8 17 6 18 4 8 -9 -7 -8 -11
-17 -8 -20 2 -2 5 -39 7 -82 1 -42 6 -80 11 -83 5 -3 3 -9 -4 -14 -10 -6 -11
-9 -1 -9 6 0 12 -5 12 -11 0 -5 -6 -7 -12 -3 -10 6 -10 5 -1 -7 7 -8 14 -33
17 -54 2 -22 5 -40 6 -40 1 0 3 -7 5 -15 2 -8 7 -26 10 -40 4 -14 7 -31 7 -37
1 -7 6 -13 12 -13 6 0 4 -5 -4 -10 -11 -7 -11 -10 -2 -10 7 0 10 -4 7 -10 -3
-5 -1 -10 5 -10 6 0 8 -4 5 -10 -3 -5 -2 -10 4 -10 6 0 8 -7 5 -15 -4 -8 -1
-15 6 -15 6 0 9 -4 5 -9 -3 -5 0 -13 6 -16 5 -4 8 -13 5 -21 -3 -8 -1 -14 4
-14 6 0 10 -6 10 -14 0 -8 4 -16 10 -18 5 -1 11 -15 12 -30 1 -15 6 -24 10
-22 4 3 8 0 8 -6 0 -7 9 -24 20 -40 11 -15 17 -30 13 -34 -3 -3 1 -6 11 -6 9
0 15 -4 11 -9 -3 -5 2 -16 10 -24 8 -9 15 -20 15 -26 0 -6 5 -11 10 -11 6 0
10 -6 10 -14 0 -8 7 -17 16 -20 9 -4 14 -9 11 -12 -3 -4 9 -20 26 -36 18 -17
26 -27 18 -23 -9 5 -12 4 -7 -3 4 -7 14 -12 22 -12 8 0 13 -6 11 -12 -1 -7 4
-12 11 -11 6 2 12 -2 12 -9 0 -6 22 -33 50 -59 27 -25 46 -50 42 -54 -4 -5 -2
-5 4 -2 6 4 22 -5 34 -18 13 -14 30 -25 37 -25 8 0 12 -4 8 -9 -6 -11 34 -37
50 -32 5 1 7 -1 2 -5 -9 -9 95 -84 107 -77 5 4 6 1 2 -5 -4 -7 3 -17 18 -24
14 -6 26 -15 26 -20 0 -4 3 -7 8 -6 12 3 62 -24 62 -34 0 -4 7 -8 15 -8 8 0
15 -5 15 -11 0 -5 5 -7 10 -4 6 3 10 2 10 -3 0 -10 55 -36 65 -31 4 2 11 -4
16 -13 6 -10 17 -18 24 -18 8 0 15 -5 15 -11 0 -6 7 -9 15 -5 8 3 15 1 15 -4
0 -6 7 -10 15 -10 8 0 15 -5 15 -11 0 -6 7 -9 15 -5 8 3 15 1 15 -4 0 -6 7
-10 15 -10 8 0 15 -4 15 -10 0 -5 9 -10 20 -10 11 0 20 -5 20 -12 0 -6 3 -9 6
-5 4 3 23 -2 44 -13 21 -11 40 -16 44 -13 3 4 6 1 6 -5 0 -7 9 -12 21 -12 11
0 18 -4 15 -8 -2 -4 5 -9 16 -9 12 -1 24 -6 27 -11 3 -5 14 -8 24 -6 9 1 17
-2 17 -6 0 -9 40 -25 53 -22 4 1 7 -2 7 -6 0 -4 10 -8 22 -9 11 -1 25 -8 29
-15 5 -7 9 -9 9 -4 0 5 6 3 13 -3 8 -6 17 -8 20 -4 4 3 7 0 7 -7 0 -7 3 -10 6
-7 4 4 19 1 33 -7 53 -26 117 -53 156 -65 47 -15 127 -53 136 -64 3 -5 9 -8
13 -8 23 3 36 0 32 -8 -4 -5 3 -7 14 -4 12 3 20 0 20 -6 0 -7 5 -9 10 -6 6 3
10 1 10 -4 0 -6 9 -11 19 -11 11 0 23 -5 26 -10 4 -6 11 -8 16 -5 5 4 9 2 9
-3 0 -5 15 -15 33 -23 17 -7 44 -21 58 -30 14 -10 29 -16 33 -12 3 3 6 1 6 -5
0 -7 6 -12 14 -12 8 0 16 -4 18 -9 2 -5 10 -11 18 -13 20 -4 39 -22 33 -31 -2
-4 -1 -6 4 -5 15 4 54 -23 47 -34 -4 -6 -3 -8 4 -4 12 7 102 -75 102 -93 0 -6
3 -10 8 -8 4 1 9 -2 11 -8 2 -5 12 -16 23 -23 10 -7 16 -18 13 -23 -4 -5 -2
-9 3 -9 11 0 55 -84 55 -105 0 -8 4 -15 9 -15 4 0 8 -12 8 -26 0 -14 3 -23 8
-21 4 3 7 -9 8 -26 6 -164 5 -187 -3 -200 -4 -6 -8 -20 -9 -32 -1 -11 -10 -37
-18 -57 -9 -21 -16 -41 -15 -44 0 -4 -4 -10 -9 -13 -6 -3 -12 -13 -14 -21 -2
-8 -15 -26 -30 -39 -16 -14 -28 -29 -28 -33 0 -4 -16 -23 -35 -42 -19 -20 -35
-33 -35 -30 0 3 -10 -4 -22 -15 -11 -11 -25 -18 -30 -15 -5 3 -7 0 -6 -8 2 -7
-3 -12 -9 -11 -7 2 -13 -2 -13 -9 0 -6 -3 -8 -7 -5 -3 4 -15 0 -25 -10 -10 -9
-18 -13 -18 -9 0 3 -11 -1 -25 -10 -13 -8 -29 -13 -35 -9 -5 3 -10 1 -10 -4 0
-6 -7 -11 -15 -11 -8 0 -15 -4 -15 -9 0 -5 -8 -8 -17 -6 -10 1 -27 -2 -38 -8
-11 -6 -26 -10 -32 -9 -7 2 -13 -1 -13 -6 0 -5 -13 -8 -30 -7 -16 1 -30 0 -30
-4 0 -4 -12 -8 -27 -9 -53 -4 -92 -11 -102 -16 -5 -4 -13 -2 -16 4 -4 7 -11 7
-18 2 -14 -11 -192 -10 -203 0 -4 4 -14 3 -21 -4 -11 -9 -16 -9 -23 2 -7 11
-11 11 -23 1 -10 -8 -17 -9 -22 -1 -3 5 -24 10 -45 10 -21 0 -41 6 -43 13 -4
9 -6 9 -6 -1 -1 -8 -6 -10 -13 -5 -7 4 -22 8 -33 9 -50 3 -111 17 -117 28 -6
8 -8 7 -8 -2 0 -10 -5 -10 -21 -2 -11 7 -23 9 -26 7 -2 -3 -15 1 -29 8 -13 7
-35 11 -49 9 -14 -1 -25 2 -25 8 0 6 -9 8 -20 5 -11 -3 -27 1 -35 10 -12 11
-15 11 -15 1 0 -10 -3 -9 -10 2 -5 8 -10 11 -10 6 0 -5 -7 -3 -15 4 -8 6 -19
9 -24 6 -5 -4 -12 -2 -16 4 -3 5 -17 10 -31 10 -13 0 -24 4 -24 8 0 5 -6 9
-12 10 -23 1 -56 10 -76 21 -11 6 -22 7 -26 4 -3 -3 -6 -1 -6 5 0 7 -8 12 -17
12 -9 0 -35 8 -57 19 -23 10 -57 24 -76 31 -19 7 -39 18 -45 24 -5 6 -21 12
-35 14 -14 1 -27 7 -28 12 -2 6 -8 8 -13 4 -5 -3 -9 -1 -9 5 0 6 -18 16 -40
22 -22 7 -40 16 -40 21 0 4 -9 8 -20 8 -11 0 -20 3 -20 8 0 4 -14 8 -31 9 -17
1 -37 7 -44 13 -6 5 -15 6 -19 2 -4 -4 -11 -7 -14 -7 -22 -2 -51 -18 -47 -25
3 -5 -4 -14 -15 -20 -11 -6 -18 -15 -15 -21 4 -5 1 -9 -4 -9 -6 0 -11 -7 -11
-15 0 -8 -5 -15 -11 -15 -5 0 -7 -5 -4 -10 4 -6 1 -17 -5 -25 -7 -8 -9 -15 -5
-15 4 0 2 -6 -4 -14 -11 -13 -23 -54 -24 -83 0 -7 -5 -13 -10 -13 -6 0 -7 -3
-4 -7 4 -3 1 -13 -6 -21 -10 -13 -9 -14 2 -7 11 6 11 3 -2 -14 -8 -13 -13 -30
-10 -37 3 -8 -1 -14 -8 -14 -7 0 -10 -3 -6 -6 3 -3 -1 -23 -8 -44 -7 -21 -11
-41 -8 -44 4 -3 0 -6 -7 -6 -7 0 -11 -3 -7 -6 3 -3 -1 -24 -9 -46 -7 -22 -11
-44 -8 -49 3 -5 0 -9 -6 -9 -6 0 -9 -4 -5 -9 3 -5 0 -13 -6 -17 -8 -4 -7 -9 2
-15 9 -5 10 -9 3 -9 -7 0 -15 -7 -18 -16 -4 -10 -2 -13 7 -8 9 6 9 4 1 -7 -6
-8 -17 -35 -24 -61 -7 -28 -17 -45 -23 -41 -6 4 -7 1 -1 -8 11 -18 11 -42 1
-50 -4 -3 -9 -21 -10 -40 -1 -19 -6 -37 -12 -41 -6 -5 -5 -8 3 -8 10 0 10 -5
2 -20 -6 -11 -7 -20 -3 -20 5 0 10 -12 11 -27 1 -14 8 -34 16 -42 8 -9 16 -20
18 -26 2 -5 6 -9 10 -8 4 2 10 -6 13 -17 4 -11 10 -18 15 -15 4 3 11 -2 14
-11 3 -8 10 -13 14 -10 5 3 19 -4 31 -15 12 -11 26 -17 31 -14 6 3 10 1 10 -4
0 -6 7 -11 16 -11 9 0 12 -5 8 -12 -5 -7 -3 -8 6 -3 7 4 15 2 19 -4 4 -6 17
-13 28 -15 11 -3 39 -14 61 -25 23 -12 48 -21 56 -21 8 0 16 -4 18 -9 1 -5 14
-11 28 -13 14 -1 28 -7 31 -11 4 -5 18 -10 33 -10 14 -1 26 -5 26 -9 0 -5 9
-8 20 -8 11 0 20 -3 20 -7 0 -5 12 -9 26 -10 15 0 29 -5 33 -10 3 -4 19 -9 36
-11 16 -2 32 -7 35 -10 5 -7 36 -12 73 -13 9 0 17 -5 17 -10 0 -6 4 -8 8 -5 5
3 21 -1 36 -9 14 -8 24 -10 21 -5 -4 6 -2 10 4 10 5 0 12 -4 16 -10 3 -5 12
-7 19 -4 7 3 21 -2 30 -11 9 -9 16 -12 16 -6 0 6 11 6 33 0 17 -5 52 -12 77
-14 25 -3 59 -8 75 -12 17 -4 33 -6 38 -5 4 1 7 -3 7 -9 0 -8 5 -8 15 1 11 9
18 10 29 1 7 -6 30 -12 50 -13 20 -1 39 -5 42 -10 3 -4 18 -8 35 -8 16 0 29
-5 29 -11 0 -5 4 -8 10 -4 15 9 70 -55 71 -84 1 -14 1 -29 0 -33 0 -5 3 -8 8
-8 10 0 9 -19 -2 -37 -4 -6 -3 -14 3 -18 15 -9 13 -48 -2 -40 -7 4 -4 -1 6 -9
11 -9 16 -16 10 -16 -14 0 -6 -440 9 -459 10 -12 9 -13 -3 -6 -12 7 -13 6 -4
-6 6 -8 10 -22 9 -31 -2 -10 3 -18 10 -18 8 0 12 -8 10 -20 -2 -11 0 -19 4
-17 4 1 18 -11 32 -26 13 -15 37 -30 54 -33 16 -3 33 -11 37 -17 5 -9 8 -8 8
3 0 10 3 11 8 4 10 -16 614 -16 624 0 5 7 8 7 8 -3 0 -11 3 -11 17 0 9 8 17
12 17 10 2 -9 52 13 63 28 7 9 13 12 13 6 0 -5 8 2 17 15 10 14 17 28 15 32
-1 5 2 8 7 8 6 0 8 9 6 20 -2 11 0 18 6 15 10 -7 11 1 13 85 0 30 6 58 11 62
7 5 6 8 -1 8 -11 0 -12 79 0 98 3 6 2 13 -4 17 -5 3 -10 11 -10 16 0 6 3 8 8
6 4 -3 7 15 7 39 0 24 -4 44 -10 44 -5 0 -3 5 5 10 13 9 13 10 0 10 -13 0 -13
1 0 10 13 9 13 10 0 10 -13 0 -13 1 0 10 8 5 10 10 5 10 -6 0 -11 9 -11 20 0
11 3 20 6 20 3 0 6 9 6 20 0 11 -4 20 -9 20 -5 0 -6 8 -2 18 10 26 12 72 3 78
-4 3 -8 10 -8 15 0 6 3 8 8 6 4 -3 7 16 8 41 0 25 6 48 13 50 6 2 9 8 6 13 -4
5 0 16 7 24 47 55 76 83 81 78 3 -3 15 1 26 9 12 8 18 18 14 22 -4 4 0 4 8 1
9 -3 29 0 45 6 16 7 35 11 43 10 8 -1 10 2 5 10 -5 9 -2 10 9 6 9 -3 32 0 50
8 19 8 37 11 41 8 3 -4 6 -1 6 6 0 7 5 9 10 6 6 -3 10 -2 10 4 0 5 9 8 20 6
11 -2 20 1 20 6 0 6 5 7 10 4 6 -3 10 -1 10 6 0 7 3 10 6 7 3 -4 17 0 31 7 15
8 30 12 35 9 4 -3 8 3 8 12 0 10 3 15 6 11 8 -8 64 13 64 24 0 5 9 9 20 9 11
0 23 7 26 15 4 8 10 12 15 9 5 -3 9 0 9 7 0 7 3 9 7 6 3 -4 12 -2 20 4 7 6 13
8 13 5 0 -4 12 6 26 21 14 15 28 26 31 24 5 -4 36 15 59 37 7 6 16 12 20 12 4
0 14 7 23 15 9 8 28 26 44 40 15 14 27 23 27 21 0 -3 9 2 19 11 11 9 17 21 14
27 -3 6 -3 8 2 4 4 -4 18 4 31 17 13 14 28 25 34 25 6 0 9 3 7 8 -5 9 30 42
37 34 3 -3 6 0 6 6 0 6 12 24 28 39 15 16 28 31 28 33 2 6 51 65 80 95 11 12
18 27 16 33 -2 7 0 12 6 12 5 0 17 15 27 34 11 19 23 32 27 30 5 -3 7 -2 6 3
-4 13 33 83 44 83 5 0 6 4 3 10 -3 6 -1 10 5 10 6 0 8 5 5 11 -4 5 2 18 14 28
11 10 18 21 14 24 -3 4 2 18 11 31 9 14 13 33 9 42 -4 12 -3 15 5 10 11 -6 17
5 13 26 0 5 4 8 9 8 5 0 9 3 9 8 -4 21 2 32 14 26 8 -5 8 -2 -2 9 -9 12 -10
17 -2 17 7 0 9 5 5 11 -3 6 -2 14 4 18 6 3 13 20 16 36 2 17 5 30 6 30 1 0 3
8 6 18 2 9 6 25 8 35 3 9 5 18 6 20 2 1 4 11 5 22 1 11 4 21 5 23 1 1 3 16 4
34 1 18 5 35 8 38 4 4 4 13 1 21 -3 8 1 14 8 14 11 0 11 3 -1 10 -12 8 -12 10
-1 10 11 0 11 3 1 15 -7 8 -8 15 -3 15 6 0 9 11 8 25 -2 14 2 25 8 25 8 0 8 3
2 8 -12 8 -13 27 -3 38 4 4 3 13 -3 21 -9 10 -8 13 1 13 10 0 10 3 0 15 -10
12 -10 15 0 15 10 0 10 3 1 14 -9 11 -9 15 1 19 10 4 10 6 -1 6 -11 1 -11 4
-1 16 7 8 9 15 4 15 -5 0 -10 27 -11 61 -1 33 -7 67 -13 74 -8 9 -8 15 0 20 6
4 7 13 1 23 -4 9 -7 25 -6 35 2 9 -2 17 -8 17 -7 0 -5 5 3 10 8 5 10 10 4 10
-6 0 -11 12 -11 27 0 15 -5 29 -10 30 -5 2 -8 17 -7 33 1 17 -3 30 -9 30 -6 0
-7 3 -4 7 4 3 0 17 -9 31 -11 17 -12 22 -3 16 9 -5 7 3 -5 20 -10 16 -12 25
-5 20 7 -4 2 8 -11 26 -13 18 -18 30 -11 26 10 -7 11 -4 2 11 -6 11 -7 24 -3
28 4 5 2 5 -4 2 -13 -8 -27 20 -18 34 3 5 0 9 -5 9 -6 0 -11 9 -11 19 0 11 -5
21 -11 23 -5 2 -11 12 -13 21 -1 10 -8 22 -15 27 -8 4 -10 13 -7 19 4 6 2 11
-3 11 -6 0 -11 7 -11 15 0 8 -5 15 -11 15 -5 0 -8 4 -4 9 3 6 -3 14 -12 20
-10 6 -15 11 -10 11 8 0 -19 46 -40 68 -7 8 -10 18 -7 24 4 6 3 9 -2 6 -9 -6
-37 17 -32 26 2 3 -5 14 -14 26 -10 11 -15 20 -11 20 4 0 -3 7 -15 16 -12 8
-20 20 -17 25 4 5 0 9 -7 9 -7 0 -23 16 -36 35 -12 19 -27 35 -32 35 -6 0 -10
8 -10 17 0 9 -2 14 -5 11 -7 -7 -121 103 -118 114 2 4 0 7 -5 7 -19 -3 -33 2
-27 11 3 6 -1 10 -9 10 -9 0 -16 5 -16 10 0 6 -5 10 -11 10 -7 0 -22 12 -35
26 -14 14 -29 22 -36 18 -7 -4 -8 -3 -4 4 4 7 1 12 -8 12 -8 0 -21 8 -28 18
-7 9 -20 18 -28 20 -8 2 -16 8 -18 13 -2 5 -10 9 -18 9 -8 0 -14 5 -14 11 0 5
-4 8 -9 4 -5 -3 -16 3 -23 13 -7 11 -21 18 -30 16 -10 -1 -18 4 -18 12 0 8 -3
13 -7 12 -14 -4 -53 13 -53 23 0 5 -9 9 -20 9 -11 0 -20 4 -20 10 0 5 -3 10
-7 9 -18 -3 -52 14 -47 22 3 5 -2 6 -10 3 -9 -3 -16 -1 -16 5 0 6 -9 11 -20
11 -11 0 -20 5 -20 11 0 5 -4 7 -10 4 -5 -3 -10 -1 -10 5 0 6 -4 8 -10 5 -5
-3 -10 -1 -10 5 0 6 -4 9 -9 5 -5 -3 -16 1 -24 9 -8 8 -17 12 -21 9 -3 -4 -6
-1 -6 5 0 6 -7 9 -15 6 -8 -4 -15 -1 -15 5 0 6 -11 11 -25 11 -14 0 -25 4 -25
9 0 5 -10 12 -22 16 -13 4 -25 9 -28 10 -3 1 -15 6 -27 10 -13 4 -23 11 -23
16 0 5 -6 6 -14 3 -8 -3 -17 -1 -21 5 -3 6 -15 11 -26 11 -10 0 -19 5 -19 10
0 6 -9 10 -21 10 -11 0 -18 4 -15 8 4 7 -17 12 -61 15 -7 0 -13 6 -13 13 0 8
-6 11 -15 8 -8 -4 -15 -1 -15 4 0 6 -9 9 -20 7 -13 -2 -20 2 -20 11 0 8 -3 13
-7 13 -23 -4 -43 2 -38 10 3 6 -4 8 -15 6 -11 -2 -26 3 -34 11 -8 8 -24 14
-35 14 -11 0 -23 5 -26 10 -3 6 -15 10 -26 10 -10 0 -19 5 -19 10 0 6 -7 10
-15 10 -8 0 -24 5 -35 10 -23 12 -58 30 -80 41 -8 4 -34 16 -57 25 -23 10 -40
21 -37 25 2 4 -5 6 -16 4 -13 -2 -20 1 -20 11 0 8 -3 13 -7 12 -12 -2 -46 14
-61 29 -8 7 -17 11 -21 9 -4 -3 -14 4 -21 15 -8 10 -20 19 -28 19 -7 0 -11 4
-7 9 3 6 -4 8 -16 6 -12 -2 -19 -2 -16 2 7 7 -36 43 -52 43 -6 0 -11 6 -11 14
0 8 -9 18 -20 21 -11 4 -18 11 -15 16 4 5 -1 9 -10 9 -9 0 -13 5 -10 10 3 6 0
10 -8 10 -8 0 -22 15 -31 33 -8 17 -24 45 -35 61 -11 17 -18 33 -15 38 3 4 0
8 -7 8 -6 0 -9 8 -6 20 3 10 0 21 -5 22 -6 2 -12 19 -14 38 -2 19 -6 50 -9 68
-3 21 -1 32 8 32 8 0 7 4 -3 10 -12 8 -12 10 5 10 12 0 16 3 9 8 -13 8 -14 72
-1 72 4 0 7 9 7 20 0 11 5 20 10 20 6 0 10 9 10 20 0 11 5 20 10 20 6 0 10 6
10 14 0 8 14 28 30 46 17 18 30 36 30 41 0 5 4 9 9 9 4 0 20 12 35 26 14 15
26 24 26 20 0 -4 6 -2 13 3 60 50 80 64 72 51 -8 -13 -7 -13 8 -1 9 7 17 10
17 5 0 -4 6 0 13 11 8 10 19 15 24 12 6 -4 16 0 23 8 10 12 16 13 26 4 11 -9
14 -8 14 0 0 7 5 9 10 6 6 -3 10 -1 10 5 0 7 8 9 21 5 12 -4 19 -3 16 2 -3 4
7 9 21 9 100 4 103 4 96 17 -6 8 -3 8 9 -1 9 -8 22 -10 29 -6 18 11 48 12 54
2 3 -5 12 -4 20 3 10 8 14 8 14 0 0 -7 8 -8 25 -1 18 7 25 6 25 -3 0 -8 3 -8
9 2 6 9 11 10 15 2 4 -6 13 -8 19 -4 18 11 37 12 37 2 0 -6 8 -6 19 1 13 7 22
7 26 0 9 -15 27 -12 19 3 -5 9 -4 9 6 0 11 -10 17 -10 29 0 12 9 13 9 7 0 -7
-13 6 -15 107 -16 20 0 37 -3 37 -8 0 -4 16 -6 35 -5 20 2 38 0 40 -5 3 -4 14
-6 25 -4 11 2 20 0 20 -4 0 -5 11 -7 25 -6 14 2 27 -1 31 -6 3 -5 10 -9 15 -9
6 0 7 6 3 13 -6 8 -3 8 9 -1 9 -8 26 -11 39 -7 18 5 20 4 8 -4 -16 -11 -13
-12 33 -14 12 -1 28 -7 35 -14 8 -7 18 -10 23 -7 10 6 47 -5 94 -27 11 -6 30
-11 43 -12 12 0 22 -4 22 -7 0 -3 20 -12 45 -19 25 -7 45 -17 45 -22 0 -5 7
-6 15 -3 8 4 15 1 15 -5 0 -6 8 -11 18 -11 10 0 23 -5 30 -12 7 -7 12 -9 12
-4 0 4 13 -2 29 -13 16 -12 36 -21 44 -21 9 0 19 -5 22 -10 4 -6 11 -8 16 -5
5 4 9 0 9 -7 0 -9 3 -9 10 2 5 8 10 10 10 4 0 -7 11 -14 25 -16 14 -3 25 -1
25 5 0 6 6 3 13 -7 12 -16 14 -16 35 4 12 11 22 18 22 15 0 -3 9 -1 20 5 11 6
18 15 15 19 -3 5 2 11 10 15 9 3 12 12 8 22 -4 11 -3 15 4 11 7 -4 14 5 18 23
4 16 11 32 16 35 5 4 9 17 9 30 0 13 4 26 9 30 6 3 8 14 6 25 -3 13 0 18 7 14
7 -5 9 0 6 14 -4 12 -2 25 3 28 5 3 7 10 4 15 -4 5 -1 9 5 9 7 0 10 7 7 15 -4
8 -2 17 3 20 6 4 10 16 10 29 0 12 5 27 12 34 7 7 9 12 5 12 -4 0 -1 12 6 28
8 15 13 37 12 50 -1 12 2 22 7 22 5 0 7 4 3 9 -3 5 -1 12 4 16 6 3 7 13 4 22
-4 9 -2 14 3 11 5 -4 10 6 11 20 0 15 5 28 11 30 5 1 7 14 4 27 -2 14 0 25 6
25 6 0 9 9 7 20 -2 11 2 25 8 32 7 7 13 22 14 33 1 11 5 34 9 50 4 17 7 42 7
57 -1 16 4 25 9 22 6 -4 2 6 -8 22 -11 16 -13 25 -6 20 7 -4 3 12 -10 37 -13
25 -25 43 -27 41 -2 -2 -15 9 -29 24 -14 15 -29 26 -33 25 -4 -1 -13 4 -19 12
-7 8 -21 15 -31 15 -11 0 -19 5 -19 10 0 6 -3 9 -7 8 -5 -1 -19 4 -31 11 -13
7 -26 10 -29 7 -3 -3 -12 2 -20 10 -8 8 -18 12 -23 9 -5 -3 -11 -1 -15 5 -4 6
-10 8 -15 5 -4 -3 -13 2 -20 10 -6 7 -18 11 -26 8 -8 -3 -14 -1 -14 4 0 5 -10
9 -22 10 -11 1 -25 8 -29 15 -7 10 -9 10 -9 -2 0 -10 -3 -11 -8 -4 -8 12 -60
28 -81 25 -7 -1 -10 2 -7 7 3 5 -8 8 -24 7 -17 -1 -27 2 -23 8 4 6 0 8 -10 4
-10 -4 -17 -2 -17 4 0 6 -7 9 -15 5 -8 -3 -15 -1 -15 4 0 5 -10 10 -22 10 -13
0 -33 1 -45 1 -13 0 -25 4 -28 10 -4 5 -22 9 -41 9 -19 0 -34 4 -34 10 0 5 -7
7 -15 4 -8 -4 -23 -3 -32 1 -10 4 -36 9 -58 10 -22 1 -47 5 -56 9 -9 4 -20 6
-25 5 -5 -1 -11 0 -14 1 -11 4 -46 11 -70 15 -14 1 -27 4 -30 5 -3 1 -8 2 -12
1 -5 0 -8 4 -8 10 0 5 -4 8 -9 4 -5 -3 -17 2 -25 11 -9 8 -16 12 -16 8 0 -4
-9 2 -20 14 -11 12 -20 28 -20 36 0 8 -4 17 -10 21 -5 3 -6 13 -3 22 4 9 2 14
-3 11 -5 -4 -9 73 -9 190 0 109 -4 203 -9 210 -5 7 -4 12 2 12 14 0 7 37 -10
58 -10 12 -10 14 0 8 9 -5 11 -1 8 16 -3 13 -5 25 -6 28 -1 3 -2 17 -2 32 -1
15 -4 25 -8 23 -4 -3 -10 6 -14 18 -7 28 -41 69 -50 60 -3 -3 -6 -2 -6 4 0 6
-7 14 -16 17 -10 4 -13 2 -9 -7 4 -6 1 -5 -7 3 -7 8 -24 16 -38 18 -64 8 -621
9 -626 1 -3 -5 -10 -9 -15 -9 -6 0 -7 5 -4 10 3 6 4 10 1 10 -3 0 -8 -5 -11
-10z"/>
</g>
</svg>
